<mxfile host="app.diagrams.net" modified="2021-09-07T14:13:15.290Z" agent="5.0 (X11)" etag="fdlei-3amHar8Qt6usvm" version="15.1.0" type="github">
  <diagram id="9R-i74DeMPhSz7cRhkr1" name="Page-1">
    <mxGraphModel dx="1036" dy="481" grid="1" gridSize="10" guides="1" tooltips="1" connect="1" arrows="1" fold="1" page="1" pageScale="1" pageWidth="827" pageHeight="1169" math="0" shadow="0">
      <root>
        <mxCell id="0" />
        <mxCell id="1" parent="0" />
        <mxCell id="TETFTrsI7cYIw3K0vq1E-3" value="" style="edgeStyle=orthogonalEdgeStyle;rounded=0;orthogonalLoop=1;jettySize=auto;html=1;" edge="1" parent="1" source="TETFTrsI7cYIw3K0vq1E-1" target="TETFTrsI7cYIw3K0vq1E-2">
          <mxGeometry relative="1" as="geometry">
            <Array as="points">
              <mxPoint x="90" y="85" />
            </Array>
          </mxGeometry>
        </mxCell>
        <mxCell id="TETFTrsI7cYIw3K0vq1E-5" value="" style="edgeStyle=orthogonalEdgeStyle;rounded=0;orthogonalLoop=1;jettySize=auto;html=1;" edge="1" parent="1" source="TETFTrsI7cYIw3K0vq1E-1" target="TETFTrsI7cYIw3K0vq1E-4">
          <mxGeometry relative="1" as="geometry">
            <Array as="points">
              <mxPoint x="90" y="355" />
            </Array>
          </mxGeometry>
        </mxCell>
        <mxCell id="TETFTrsI7cYIw3K0vq1E-1" value="BitBucket" style="rounded=1;whiteSpace=wrap;html=1;" vertex="1" parent="1">
          <mxGeometry x="30" y="190" width="120" height="60" as="geometry" />
        </mxCell>
        <mxCell id="TETFTrsI7cYIw3K0vq1E-2" value="Infra" style="shape=singleArrow;whiteSpace=wrap;html=1;arrowWidth=0.4;arrowSize=0.4;rounded=1;" vertex="1" parent="1">
          <mxGeometry x="140" y="30" width="110" height="110" as="geometry" />
        </mxCell>
        <mxCell id="TETFTrsI7cYIw3K0vq1E-4" value="App" style="shape=singleArrow;whiteSpace=wrap;html=1;arrowWidth=0.4;arrowSize=0.4;rounded=1;" vertex="1" parent="1">
          <mxGeometry x="140" y="300" width="110" height="110" as="geometry" />
        </mxCell>
      </root>
    </mxGraphModel>
  </diagram>
</mxfile>
